# xmcd CD database file
#
# Track frame offsets:
#	150
#	15742
#	35802
#	53322
#	79538
#	97312
#	117415
#	142364
#	154769
#	177284
#	204311
#
# Disc length: 2965 seconds
#
# Revision: 0
# Processed by: cddbd v1.5.1PL0 Copyright (c) Steve Scherf et al.
# Submitted via: CDex 1.51
#
DISCID=940b930b
DTITLE=Rebecca Coupe Franks - Exhibition: Tribute to Joe Henderson
DYEAR=2004
DGENRE=Jazz
TTITLE0=Wow
TTITLE1=Page Two
TTITLE2=Detroit Blues
TTITLE3=Los Palmos
TTITLE4=Rain and Tears (duet)
TTITLE5=Ode to Joe
TTITLE6=Inspiration
TTITLE7=Sincere
TTITLE8=Exhibition
TTITLE9=Gentle Soul
TTITLE10=Rain and Tears (band)
EXTD=YEAR: 2004
EXTT0=
EXTT1=
EXTT2=
EXTT3=
EXTT4=
EXTT5=
EXTT6=
EXTT7=
EXTT8=
EXTT9=
EXTT10=
PLAYORDER=
